#!OML:ASF H:\Dans Jumps\Project 1\Capture day 1\Session 1\subject.ASF
:FULLY-SPECIFIED
:DEGREES
171
root 0.380955 16.025 -15.2555 10.3384 -0.245499 -0.892509
lowerback 15.6592 0.381471 -0.0483671
upperback 13.0354 0.456857 1.35625
thorax 5.14772 0.156257 1.41165
lowerneck -17.2001 0.146618 -2.25921
upperneck 19.554 0.837615 -0.106127
head 8.96397 0.209921 0.443682
rclavicle -6.36111e-015 -8.15017e-015
rhumerus -92.4195 -5.77339 -43.8222
rradius 18.5429
rwrist 40.1793
rhand -18.9497 -24.0741
rfingers 7.12502
rthumb 7.35368 -53.9263
lclavicle -6.36111e-015 -8.15017e-015
lhumerus -86.7764 0.711455 62.4808
lradius 11.7509
lwrist 8.96925
lhand -24.1655 -3.38541
lfingers 7.12502
lthumb 2.31753 26.5817
rfemur -43.5407 -2.70806 19.2777
rtibia 58.493
rfoot -25.4103 -9.85813
rtoes -1.65447
lfemur -43.0374 6.89662 -21.0389
ltibia 57.1691
lfoot -23.2699 14.6602
ltoes -5.0884
172
root 0.378276 15.986 -15.2721 10.4778 -0.125323 -0.867145
lowerback 15.8602 0.34258 -0.0383883
upperback 13.1173 0.408198 1.36852
thorax 5.13527 0.131984 1.4242
lowerneck -17.4741 0.135194 -2.3136
upperneck 19.2518 0.840423 -0.102227
head 8.90946 0.210251 0.45404
rclavicle 1.59028e-015 7.7526e-015
rhumerus -92.7099 -5.56175 -43.3691
rradius 18.1887
rwrist 41.033
rhand -18.619 -23.9617
rfingers 7.12502
rthumb 7.67293 -53.8025
lclavicle 1.59028e-015 7.7526e-015
lhumerus -86.8782 0.742015 61.5715
lradius 11.3923
lwrist 7.88053
lhand -23.8199 -3.26818
lfingers 7.12502
lthumb 2.65133 26.6951
rfemur -44.091 -2.73724 19.2787
rtibia 59.1168
rfoot -25.6889 -10.0741
rtoes -1.77163
lfemur -43.6068 6.80357 -21.084
ltibia 57.7715
lfoot -23.485 14.7489
ltoes -5.12075
173
root 0.375614 15.9464 -15.2887 10.6303 0.00110266 -0.844314
lowerback 16.0799 0.299434 -0.0278151
upperback 13.181 0.354439 1.38631
thorax 5.09333 0.105129 1.44281
lowerneck -17.7218 0.124358 -2.37383
upperneck 18.9387 0.844686 -0.0969117
head 8.84642 0.211276 0.46588
rclavicle 2.78299e-015 3.57812e-015
rhumerus -92.963 -5.33355 -42.9826
rradius 17.8863
rwrist 41.9473
rhand -18.2305 -23.8139
rfingers 7.12502
rthumb 8.04788 -53.6406
lclavicle 2.78299e-015 3.57812e-015
lhumerus -86.9396 0.78614 60.7328
lradius 11.0633
lwrist 6.72265
lhand -23.4746 -3.18141
lfingers 7.12502
lthumb 2.98478 26.7774
rfemur -44.6624 -2.77125 19.2849
rtibia 59.7514
rfoot -25.9598 -10.2953
rtoes -1.91451
lfemur -44.1964 6.69593 -21.1224
ltibia 58.3878
lfoot -23.6794 14.8792
ltoes -5.09978
174
root 0.372946 15.9062 -15.305 10.79 0.131707 -0.819168
lowerback 16.3047 0.254365 -0.0165707
upperback 13.2425 0.298499 1.40549
thorax 5.04656 0.0772065 1.46303
lowerneck -17.9604 0.110425 -2.43993
upperneck 18.6175 0.843501 -0.079295
head 8.77897 0.210917 0.482087
rclavicle 5.96354e-016 3.97569e-016
rhumerus -93.1733 -5.12197 -42.6373
rradius 17.6359
rwrist 42.9225
rhand -17.8132 -23.6551
rfingers 7.12502
rthumb 8.45063 -53.4661
lclavicle 5.96354e-016 3.97569e-016
lhumerus -86.9429 0.845492 60.0019
lradius 10.7678
lwrist 5.53289
lhand -23.1441 -3.10227
lfingers 7.12502
lthumb 3.30398 26.8519
rfemur -45.2455 -2.80855 19.2897
rtibia 60.3952
rfoot -26.2335 -10.5173
rtoes -2.05782
lfemur -44.7961 6.57409 -21.1592
ltibia 59.0166
lfoot -23.8602 15.0597
ltoes -5.04524
175
root 0.370328 15.865 -15.3208 10.9647 0.264395 -0.792666
lowerback 16.5529 0.207538 -0.00219494
upperback 13.2785 0.241326 1.42325
thorax 4.95932 0.0492442 1.48018
lowerneck -18.1634 0.0977467 -2.50379
upperneck 18.2921 0.841096 -0.0549143
head 8.7037 0.211133 0.499901
rclavicle -1.78906e-015 1.13307e-014
rhumerus -93.3489 -4.91467 -42.3563
rradius 17.4242
rwrist 43.8689
rhand -17.4144 -23.5005
rfingers 7.12502
rthumb 8.83546 -53.2956
lclavicle -1.78906e-015 1.13307e-014
lhumerus -86.9212 0.906025 59.374
lradius 10.5045
lwrist 4.33573
lhand -22.8614 -3.04663
lfingers 7.12502
lthumb 3.57691 26.9031
rfemur -45.8499 -2.84911 19.294
rtibia 61.0496
rfoot -26.5162 -10.7341
rtoes -2.1956
lfemur -45.4166 6.4407 -21.1968
ltibia 59.6592
lfoot -24.0346 15.2663
ltoes -4.97308
176
root 0.367879 15.8227 -15.3362 11.154 0.388484 -0.76604
lowerback 16.8162 0.163279 0.014697
upperback 13.295 0.188329 1.43814
thorax 4.84278 0.0238679 1.49255
lowerneck -18.3554 0.080567 -2.56833
upperneck 17.984 0.830033 -0.0174243
head 8.63245 0.208614 0.521159
rclavicle -5.96354e-016 -6.95746e-015
rhumerus -93.4801 -4.72919 -42.1366
rradius 17.2406
rwrist 44.7176
rhand -17.0311 -23.3736
rfingers 7.12502
rthumb 9.20531 -53.1526
lclavicle -5.96354e-016 -6.95746e-015
lhumerus -86.8749 0.961233 58.9215
lradius 10.2861
lwrist 3.27751
lhand -22.619 -2.98591
lfingers 7.12502
lthumb 3.81107 26.9598
rfemur -46.4769 -2.88702 19.2974
rtibia 61.7184
rfoot -26.8122 -10.9402
rtoes -2.30421
lfemur -46.0578 6.30375 -21.2365
ltibia 60.3182
lfoot -24.2131 15.4805
ltoes -4.91602
177
root 0.365475 15.7785 -15.3511 11.3663 0.51041 -0.741274
lowerback 17.0943 0.120394 0.035926
upperback 13.2855 0.138319 1.45122
thorax 4.6897 0.000626339 1.50039
lowerneck -18.5327 0.0682286 -2.61309
upperneck 17.6942 0.821348 0.0144074
head 8.56496 0.207866 0.537529
rclavicle 7.15625e-015 1.11319e-014
rhumerus -93.5598 -4.57182 -41.9758
rradius 17.0745
rwrist 45.4084
rhand -16.7334 -23.2819
rfingers 7.12502
rthumb 9.49254 -53.0481
lclavicle 7.15625e-015 1.11319e-014
lhumerus -86.8081 1.00461 58.6687
lradius 10.1137
lwrist 2.45766
lhand -22.4283 -2.92674
lfingers 7.12502
lthumb 3.99513 27.0156
rfemur -47.1393 -2.92631 19.3042
rtibia 62.4076
rfoot -27.1167 -11.1431
rtoes -2.3917
lfemur -46.7356 6.15937 -21.2766
ltibia 60.9981
lfoot -24.3948 15.6782
ltoes -4.88118
178
root 0.363084 15.732 -15.3661 11.6072 0.629554 -0.723344
lowerback 17.3653 0.0814353 0.0695047
upperback 13.2626 0.0952874 1.46246
thorax 4.52548 -0.01808 1.49877
lowerneck -18.7083 0.0615756 -2.62873
upperneck 17.4181 0.815803 0.0311901
head 8.50199 0.208849 0.544443
rclavicle 3.97569e-016 3.97569e-015
rhumerus -93.5796 -4.48658 -41.7459
rradius 16.9063
rwrist 46.0433
rhand -16.5127 -23.2092
rfingers 7.12502
rthumb 9.70551 -52.9656
lclavicle 3.97569e-016 3.97569e-015
lhumerus -86.7165 1.02334 58.6729
lradius 10.0161
lwrist 2.00245
lhand -22.2542 -2.87205
lfingers 7.12502
lthumb 4.1633 27.067
rfemur -47.8464 -2.96396 19.3184
rtibia 63.1211
rfoot -27.4353 -11.3289
rtoes -2.39527
lfemur -47.4614 6.00753 -21.311
ltibia 61.701
lfoot -24.5742 15.8555
ltoes -4.87287
179
root 0.360815 15.6836 -15.3807 11.8707 0.745071 -0.71206
lowerback 17.6344 0.044194 0.106467
upperback 13.2259 0.0553144 1.47648
thorax 4.34729 -0.0351163 1.49807
lowerneck -18.8809 0.0557617 -2.6326
upperneck 17.1525 0.810955 0.0350316
head 8.44222 0.209457 0.545172
rclavicle 4.17448e-015 3.77691e-015
rhumerus -93.5483 -4.4352 -41.5426
rradius 16.7716
rwrist 46.5205
rhand -16.3257 -23.1396
rfingers 7.12502
rthumb 9.8859 -52.8875
lclavicle 4.17448e-015 3.77691e-015
lhumerus -86.5794 1.06188 58.6732
lradius 9.951
lwrist 1.69191
lhand -22.0559 -2.82991
lfingers 7.12502
lthumb 4.35479 27.1053
rfemur -48.5886 -3.00205 19.3402
rtibia 63.8565
rfoot -27.7634 -11.5073
rtoes -2.32046
lfemur -48.2241 5.84926 -21.3389
ltibia 62.4233
lfoot -24.7442 16.0197
ltoes -4.88202
180
root 0.358507 15.6331 -15.3952 12.1542 0.866698 -0.704946
lowerback 17.8715 0.00633687 0.143666
upperback 13.2039 0.0144426 1.49594
thorax 4.2023 -0.0530485 1.50355
lowerneck -19.0473 0.0576422 -2.61586
upperneck 16.851 0.816474 0.00892887
head 8.36932 0.21352 0.53358
rclavicle -1.98785e-016 -5.56597e-015
rhumerus -93.4276 -4.46637 -41.2535
rradius 16.6428
rwrist 46.9706
rhand -16.1923 -23.0778
rfingers 7.12502
rthumb 10.0146 -52.8195
lclavicle -1.98785e-016 -5.56597e-015
lhumerus -86.3512 1.14561 58.6786
lradius 9.91623
lwrist 1.54906
lhand -21.817 -2.75919
lfingers 7.12502
lthumb 4.58548 27.1712
rfemur -49.3635 -3.04648 19.3692
rtibia 64.6128
rfoot -28.0868 -11.6964
rtoes -2.19712
lfemur -49.0225 5.67517 -21.3585
ltibia 63.1627
lfoot -24.9012 16.1689
ltoes -4.86937
181
root 0.356269 15.5812 -15.4094 12.4477 0.987441 -0.703408
lowerback 18.122 -0.0300368 0.180486
upperback 13.1674 -0.0239834 1.52296
thorax 4.03464 -0.0700704 1.51719
lowerneck -19.1985 0.0628699 -2.59272
upperneck 16.5476 0.829325 -0.0425458
head 8.29328 0.218806 0.513311
rclavicle 1.43125e-014 8.94531e-015
rhumerus -93.2548 -4.53788 -40.894
rradius 16.5243
rwrist 47.3818
rhand -16.1302 -23.0314
rfingers 7.12502
rthumb 10.0745 -52.7702
lclavicle 1.43125e-014 8.94531e-015
lhumerus -86.0784 1.24615 58.6933
lradius 9.90036
lwrist 1.51542
lhand -21.5408 -2.67516
lfingers 7.12502
lthumb 4.85221 27.2493
rfemur -50.1562 -3.0925 19.4064
rtibia 65.384
rfoot -28.3984 -11.9086
rtoes -2.05379
lfemur -49.8397 5.49262 -21.3678
ltibia 63.9143
lfoot -25.0426 16.3097
ltoes -4.82436
182
root 0.354187 15.5282 -15.4227 12.7418 1.10146 -0.700373
lowerback 18.3971 -0.0625798 0.209182
upperback 13.1165 -0.0577865 1.55571
thorax 3.83875 -0.0855206 1.54115
lowerneck -19.3357 0.0662047 -2.58194
upperneck 16.2505 0.843653 -0.0998207
head 8.21703 0.223365 0.49334
rclavicle 1.98785e-016 5.96354e-016
rhumerus -93.0289 -4.64716 -40.4972
rradius 16.4082
rwrist 47.7502
rhand -16.1536 -23.0468
rfingers 7.12502
rthumb 10.0519 -52.7867
lclavicle 1.98785e-016 5.96354e-016
lhumerus -85.7199 1.38972 58.7209
lradius 9.8462
lwrist 1.54399
lhand -21.2407 -2.56288
lfingers 7.12502
lthumb 5.14199 27.3547
rfemur -50.9553 -3.13819 19.4435
rtibia 66.1676
rfoot -28.6851 -12.16
rtoes -1.94428
lfemur -50.6598 5.30348 -21.3734
ltibia 64.676
lfoot -25.1759 16.4485
ltoes -4.74716
183
root 0.352008 15.4733 -15.4355 13.0491 1.20896 -0.696412
lowerback 18.6859 -0.0904854 0.232208
upperback 13.0422 -0.0855795 1.59179
thorax 3.61022 -0.0983436 1.57125
lowerneck -19.4778 0.0759179 -2.56214
upperneck 15.9878 0.869255 -0.181104
head 8.15339 0.23092 0.465443
rclavicle 3.97569e-016 -1.19271e-014
rhumerus -92.7422 -4.79656 -40.0848
rradius 16.2692
rwrist 48.0917
rhand -16.2821 -23.123
rfingers 7.12502
rthumb 9.92803 -52.8689
lclavicle 3.97569e-016 -1.19271e-014
lhumerus -85.2829 1.56612 58.7585
lradius 9.74181
lwrist 1.53541
lhand -20.9661 -2.43487
lfingers 7.12502
lthumb 5.40712 27.4761
rfemur -51.7805 -3.17981 19.4834
rtibia 66.9642
rfoot -28.9409 -12.4653
rtoes -1.89532
lfemur -51.5009 5.1087 -21.3749
ltibia 65.4512
lfoot -25.3056 16.5829
ltoes -4.64044
184
root 0.34986 15.4169 -15.4471 13.3649 1.29344 -0.69056
lowerback 18.9917 -0.108673 0.244304
upperback 12.9419 -0.101625 1.6261
thorax 3.34438 -0.105781 1.6041
lowerneck -19.6246 0.0817171 -2.55761
upperneck 15.7757 0.892128 -0.251362
head 8.10751 0.236834 0.443628
rclavicle -1.98785e-016 -8.15017e-015
rhumerus -92.4002 -4.97718 -39.7071
rradius 16.1102
rwrist 48.4279
rhand -16.4598 -23.2498
rfingers 7.12502
rthumb 9.75657 -53.0038
lclavicle -1.98785e-016 -8.15017e-015
lhumerus -84.7675 1.77246 58.8018
lradius 9.57576
lwrist 1.42271
lhand -20.7046 -2.29133
lfingers 7.12502
lthumb 5.6596 27.6131
rfemur -52.6253 -3.20686 19.5215
rtibia 67.7732
rfoot -29.1655 -12.8158
rtoes -1.90871
lfemur -52.3522 4.91907 -21.3752
ltibia 66.241
lfoot -25.4437 16.7251
ltoes -4.53703
